<svg xmlns="http://www.w3.org/2000/svg" x="0px" y="0px" width="100" height="100" viewBox="0 0 50 50">
<circle cx="18.458" cy="28.458" r="1.458" fill="#212121"></circle><circle cx="31.458" cy="28.458" r="1.458" fill="#212121"></circle><path fill="none" stroke="#000" stroke-linecap="round" stroke-linejoin="round" stroke-miterlimit="10" stroke-width="2" d="M11,36	c-3-1-4-4-4-5c0-2,1-3,4-3v4V36z"></path><path fill="none" stroke="#000" stroke-linecap="round" stroke-linejoin="round" stroke-miterlimit="10" stroke-width="2" d="M11,21	v15.377c0,3.679,4.503,8.041,12.654,10.288c0.88,0.243,1.813,0.242,2.694-0.001C34.498,44.414,39,40.019,39,36.377V21	C28.868,21,21.132,21,11,21z"></path><circle cx="18" cy="28" r="4" fill="none" stroke="#000" stroke-linecap="round" stroke-linejoin="round" stroke-miterlimit="10" stroke-width="2"></circle><circle cx="32" cy="28" r="4" fill="none" stroke="#000" stroke-linecap="round" stroke-linejoin="round" stroke-miterlimit="10" stroke-width="2"></circle><path fill="none" stroke="#000" stroke-linecap="round" stroke-linejoin="round" stroke-miterlimit="10" stroke-width="2" d="M15,36	c1.314,3.474,5.293,6,10,6s8.686-2.526,10-6H15z"></path><path fill="none" stroke="#000" stroke-linecap="round" stroke-linejoin="round" stroke-miterlimit="10" stroke-width="2" d="M33.125,4h-16.25C12.526,4,9,7.526,9,11.875V21h32v-9.125C41,7.526,37.474,4,33.125,4z"></path><rect width="32" height="8" x="9" y="13" fill="none" stroke="#000" stroke-linecap="round" stroke-linejoin="round" stroke-miterlimit="10" stroke-width="2"></rect><line x1="1" x2="49" y1="21" y2="21" fill="none" stroke="#000" stroke-linecap="round" stroke-linejoin="round" stroke-miterlimit="10" stroke-width="2"></line><polyline fill="none" stroke="#000" stroke-linecap="round" stroke-linejoin="round" stroke-miterlimit="10" stroke-width="2" points="8,21 4,25 8,25 5,31 7,30"></polyline><path fill="none" stroke="#000" stroke-linecap="round" stroke-linejoin="round" stroke-miterlimit="10" stroke-width="2" d="M39,32	v-4c3,0,4,1,4,3c0,1-1,4-4,5V32z"></path><polyline fill="none" stroke="#000" stroke-linecap="round" stroke-linejoin="round" stroke-miterlimit="10" stroke-width="2" points="42,21 46,25 42,25 45,31 43,30"></polyline><line x1="24" x2="26" y1="32" y2="32" fill="none" stroke="#000" stroke-linecap="round" stroke-linejoin="round" stroke-miterlimit="10" stroke-width="2"></line>
</svg>