<svg xmlns="http://www.w3.org/2000/svg" x="0px" y="0px" width="100" height="100" viewBox="0 0 100 100">
<circle cx="26" cy="24" r="14" fill="#f15b6c"></circle><path fill="#d6d3c5" d="M76,35l-20-8c0,0-5.912,3.193-12.854,10.965l4.984,5.993c1.012,1.2,0.937,2.974-0.173,4.084v0	c-1.153,1.153-3.013,1.183-4.202,0.068l-5.026-4.687C32.357,52.09,25.969,64.608,23,82c4.362,4.489,9.705,7.474,16,9	c0,0,14-19,42-39L76,35z"></path><path fill="#1f212b" d="M26,39c-8.271,0-15-6.729-15-15S17.729,9,26,9s15,6.729,15,15S34.271,39,26,39z M26,11	c-7.168,0-13,5.832-13,13s5.832,13,13,13s13-5.832,13-13S33.168,11,26,11z"></path><path fill="#1f212b" d="M34.841,90.095c-0.061,0-0.122-0.011-0.181-0.034c-0.258-0.1-0.386-0.39-0.285-0.646	c2.031-5.226,13.353-32.161,36.83-49.317c0.222-0.164,0.535-0.115,0.698,0.108c0.163,0.223,0.114,0.536-0.108,0.698	C48.542,57.896,37.32,84.596,35.307,89.775C35.229,89.974,35.041,90.095,34.841,90.095z"></path><path fill="#bebacb" d="M48.13,43.958L37.792,31.527c-1.48,2.314-3.617,4.164-6.154,5.282L43.755,48.11	c1.189,1.115,3.049,1.085,4.202-0.068v0C49.067,46.933,49.142,45.158,48.13,43.958z"></path><path fill="#bebacb" d="M67.355,62.184c-0.804,0.682-3.593,3.358-4.361,4.027L84.5,84.5L67.355,62.184z"></path><path fill="#1f212b" d="M67.355,64.184L84.5,84.5L64.995,66.211C65.762,65.543,66.551,64.866,67.355,64.184 M67.355,62.184	c-0.472,0-0.931,0.167-1.293,0.475c-0.811,0.688-1.607,1.37-2.381,2.044c-0.426,0.371-0.676,0.906-0.686,1.471	c-0.01,0.565,0.219,1.109,0.632,1.496l19.505,18.289C83.517,86.32,84.009,86.5,84.5,86.5c0.496,0,0.991-0.183,1.377-0.549	c0.768-0.729,0.835-1.931,0.152-2.741L68.884,62.894c-0.343-0.406-0.833-0.659-1.362-0.703	C67.466,62.187,67.41,62.184,67.355,62.184L67.355,62.184z"></path><path fill="#1f212b" d="M45.822,49.935c-0.985,0-1.971-0.364-2.75-1.095L30.956,37.541c-0.246-0.229-0.36-0.566-0.305-0.898	c0.057-0.331,0.275-0.612,0.583-0.748c2.347-1.035,4.323-2.731,5.714-4.906c0.173-0.269,0.462-0.439,0.78-0.459	c0.335-0.009,0.627,0.113,0.831,0.358l10.337,12.429c1.355,1.609,1.256,3.945-0.232,5.434C47.876,49.538,46.85,49.935,45.822,49.935	z M33.37,37.058l11.067,10.321c0.805,0.753,2.038,0.731,2.813-0.043c0.749-0.749,0.799-1.924,0.115-2.733	c-0.001-0.001-0.003-0.003-0.004-0.005L37.856,33.17C36.63,34.757,35.108,36.075,33.37,37.058z"></path><path fill="#60be92" d="M41.685,75.347l-0.002-0.005L36.5,71.5l3.592-7l-6-4L30.5,67.706l-3.201-2.401	C25.54,70.293,24.052,75.836,23,82c3.355,3.453,7.297,6.007,11.8,7.701C35.562,87.73,37.8,82.276,41.685,75.347z"></path><path fill="#60be92" d="M54.313,41.313c-2.08-2.08-5.583-2.106-8.666-0.341l2.483,2.986c1.012,1.2,0.937,2.974-0.173,4.084v0	c-1.153,1.153-3.013,1.183-4.202,0.068l-2.587-2.413c-1.465,2.944-1.325,6.167,0.634,8.126c2.642,2.642,7.584,1.983,11.039-1.472	C56.296,48.897,56.955,43.955,54.313,41.313z"></path><path fill="#1f212b" d="M45.984,55.936c-1.74,0-3.351-0.574-4.535-1.759c-2.052-2.052-2.338-5.468-0.729-8.702l0.298-0.6	l3.078,2.87c1.001,0.938,2.54,0.912,3.507-0.056c0.934-0.934,0.996-2.399,0.145-3.409l-2.867-3.445l0.518-0.296	c3.363-1.927,7.09-1.759,9.268,0.42c2.833,2.833,2.173,8.102-1.472,11.746C51.074,54.825,48.404,55.935,45.984,55.936z M41.335,46.536c-1.096,2.648-0.796,5.316,0.821,6.934c2.44,2.44,7.077,1.782,10.331-1.472s3.914-7.89,1.472-10.332	c-1.744-1.745-4.719-1.939-7.536-0.542l2.092,2.515c1.187,1.406,1.101,3.453-0.204,4.758c-1.353,1.353-3.502,1.387-4.896,0.078	L41.335,46.536z"></path><path fill="#1f212b" d="M34.8,90.201c-0.059,0-0.118-0.01-0.176-0.032c-4.585-1.725-8.616-4.356-11.982-7.82	c-0.111-0.114-0.161-0.275-0.135-0.433c0.995-5.823,2.448-11.468,4.32-16.777c0.053-0.15,0.175-0.267,0.327-0.313	c0.149-0.047,0.317-0.017,0.444,0.078l2.722,2.042l3.324-6.669c0.063-0.129,0.18-0.224,0.318-0.261	c0.14-0.036,0.286-0.014,0.406,0.067l6,4c0.212,0.141,0.283,0.418,0.168,0.645l-3.398,6.622l4.843,3.59	c0.074,0.055,0.132,0.13,0.166,0.216c0.057,0.14,0.048,0.303-0.025,0.435c-3.872,6.906-6.084,12.295-6.855,14.291	C35.189,90.08,35,90.201,34.8,90.201z M23.536,81.833c3.113,3.153,6.804,5.581,10.979,7.223c0.895-2.262,3.014-7.269,6.521-13.571	l-4.834-3.583c-0.196-0.146-0.259-0.412-0.147-0.63l3.389-6.603l-5.157-3.438l-3.339,6.698c-0.066,0.133-0.188,0.229-0.332,0.264	c-0.146,0.032-0.298,0.003-0.415-0.086l-2.654-1.991C25.827,71.106,24.479,76.39,23.536,81.833z"></path><path fill="#1f212b" d="M39,92c-0.078,0-0.157-0.009-0.235-0.028c-6.482-1.571-12.028-4.692-16.481-9.274	c-0.223-0.229-0.322-0.551-0.269-0.865c2.561-15.003,7.913-28.125,15.909-39.002c0.169-0.229,0.429-0.376,0.713-0.403	c0.285-0.025,0.566,0.07,0.774,0.265l5.026,4.688c0.805,0.753,2.038,0.731,2.813-0.043c0.749-0.749,0.799-1.924,0.115-2.733	l-4.987-5.998c-0.317-0.381-0.308-0.937,0.022-1.306c6.979-7.813,12.877-11.045,13.124-11.179c0.262-0.143,0.572-0.16,0.847-0.049	l20,8c0.285,0.114,0.502,0.353,0.588,0.646l5,17c0.12,0.408-0.031,0.849-0.378,1.096c-27.529,19.664-41.637,38.591-41.776,38.78	C39.613,91.853,39.313,92,39,92z M24.073,81.663c3.979,3.966,8.862,6.724,14.532,8.206c2.501-3.222,16.392-20.412,41.234-38.269	l-4.662-15.853l-19.097-7.639c-1.37,0.824-6.132,3.9-11.611,9.883l4.429,5.326c1.354,1.604,1.255,3.942-0.234,5.432	c-1.544,1.544-4,1.582-5.592,0.09l-4.196-3.913C31.519,55.247,26.541,67.598,24.073,81.663z"></path><path fill="#1f212b" d="M31.735,16.926c-0.105,0-0.212-0.033-0.302-0.102c-0.768-0.582-1.618-1.034-2.528-1.345	c-0.262-0.09-0.401-0.374-0.313-0.635c0.09-0.262,0.378-0.399,0.635-0.313c1.012,0.346,1.957,0.849,2.81,1.495	c0.221,0.167,0.264,0.48,0.097,0.7C32.035,16.857,31.886,16.926,31.735,16.926z"></path><path fill="#1f212b" d="M18.247,19.009c-0.101,0-0.201-0.03-0.289-0.092c-0.226-0.16-0.278-0.473-0.119-0.697	C19.715,15.577,22.766,14,26,14c0.276,0,0.5,0.224,0.5,0.5S26.276,15,26,15c-2.911,0-5.657,1.42-7.345,3.798	C18.558,18.936,18.403,19.009,18.247,19.009z"></path><path fill="#1f212b" d="M26,34c-5.514,0-10-4.486-10-10c0-1.017,0.152-2.021,0.453-2.986	c0.082-0.265,0.363-0.413,0.626-0.329c0.264,0.082,0.411,0.362,0.329,0.626C17.138,22.18,17,23.085,17,24c0,4.963,4.037,9,9,9	c0.276,0,0.5,0.224,0.5,0.5S26.276,34,26,34z"></path>
</svg>