<svg xmlns="http://www.w3.org/2000/svg" x="0px" y="0px" width="100" height="100" viewBox="0 0 100 100">
<path d="M 26 9 C 17.729 9 11 15.729 11 24 C 11 32.271 17.729 39 26 39 C 27.911752 39 29.735033 38.627601 31.417969 37.972656 L 37.40625 43.556641 C 29.699903 54.290834 24.520304 67.158976 22.015625 81.832031 C 21.962625 82.146031 22.060203 82.468266 22.283203 82.697266 C 26.736203 87.279266 32.283625 90.401656 38.765625 91.972656 C 38.843625 91.991656 38.922 92 39 92 C 39.313 92 39.612687 91.853703 39.804688 91.595703 C 39.908592 91.454422 47.824286 80.838585 63.310547 67.275391 C 63.400309 67.417507 63.501959 67.552797 63.626953 67.669922 L 83.132812 85.958984 C 83.517813 86.319984 84.009 86.5 84.5 86.5 C 84.996 86.5 85.490953 86.317172 85.876953 85.951172 C 86.644953 85.222172 86.712297 84.020937 86.029297 83.210938 L 68.884766 62.894531 C 68.829001 62.828524 68.764244 62.772522 68.701172 62.714844 C 72.612929 59.493164 76.884757 56.168327 81.580078 52.814453 C 81.927078 52.567453 82.078984 52.12675 81.958984 51.71875 L 76.958984 34.71875 C 76.872984 34.42575 76.656094 34.186266 76.371094 34.072266 L 56.371094 26.072266 C 56.096094 25.962266 55.785438 25.978094 55.523438 26.121094 C 55.285771 26.25003 49.813981 29.260598 43.183594 36.447266 L 39.011719 31.433594 C 40.270203 29.239598 41 26.705546 41 24 C 41 15.729 34.271 9 26 9 z M 26 11 C 33.168 11 39 16.832 39 24 C 39 26.58689 38.231669 28.993941 36.923828 31.021484 C 36.791866 31.226437 36.651965 31.424858 36.509766 31.621094 C 36.4279 31.733663 36.345111 31.845267 36.259766 31.955078 C 36.137301 32.113275 36.013878 32.269966 35.884766 32.421875 C 35.715373 32.620378 35.538258 32.812051 35.357422 33 C 35.28987 33.070439 35.227257 33.146008 35.158203 33.214844 C 35.15495 33.218086 35.151694 33.22137 35.148438 33.224609 C 34.895172 33.475804 34.628548 33.7135 34.355469 33.943359 C 34.254765 34.028211 34.150113 34.107722 34.046875 34.189453 C 33.855864 34.340631 33.662341 34.488433 33.462891 34.628906 C 33.341123 34.714572 33.21853 34.799368 33.09375 34.880859 C 32.878532 35.021654 32.657372 35.15312 32.433594 35.28125 C 32.329795 35.340539 32.228627 35.404443 32.123047 35.460938 C 30.29702 36.440424 28.213028 37 26 37 C 18.832 37 13 31.168 13 24 C 13 16.832 18.832 11 26 11 z M 26 14 C 22.766 14 19.715844 15.577703 17.839844 18.220703 C 17.680844 18.444703 17.731031 18.757969 17.957031 18.917969 C 18.045031 18.979969 18.145094 19.009766 18.246094 19.009766 C 18.402094 19.009766 18.557297 18.936828 18.654297 18.798828 C 20.342297 16.420828 23.089 15 26 15 C 26.276 15 26.5 14.776 26.5 14.5 C 26.5 14.224 26.276 14 26 14 z M 29.03125 14.505859 C 28.837609 14.520391 28.659297 14.64725 28.591797 14.84375 C 28.503797 15.10475 28.642297 15.388516 28.904297 15.478516 C 29.814297 15.789516 30.665594 16.242219 31.433594 16.824219 C 31.523594 16.893219 31.629375 16.925781 31.734375 16.925781 C 31.885375 16.925781 32.035766 16.857563 32.134766 16.726562 C 32.301766 16.506563 32.258109 16.192391 32.037109 16.025391 C 31.184109 15.379391 30.238563 14.87725 29.226562 14.53125 C 29.162313 14.50975 29.095797 14.501016 29.03125 14.505859 z M 16.880859 20.664062 C 16.687031 20.682672 16.514625 20.814922 16.453125 21.013672 C 16.152125 21.978672 16 22.983 16 24 C 16 29.514 20.486 34 26 34 C 26.276 34 26.5 33.776 26.5 33.5 C 26.5 33.224 26.276 33 26 33 C 21.037 33 17 28.963 17 24 C 17 23.085 17.138203 22.179547 17.408203 21.310547 C 17.490203 21.046547 17.342125 20.767547 17.078125 20.685547 C 17.012375 20.664547 16.945469 20.657859 16.880859 20.664062 z M 56.080078 28.107422 L 75.177734 35.746094 L 79.839844 51.599609 C 54.997844 69.456609 41.106469 86.647141 38.605469 89.869141 C 37.592692 89.604425 36.614235 89.28325 35.652344 88.9375 C 35.837331 88.475897 36.036173 87.988843 36.310547 87.34375 C 36.647256 86.553476 37.023401 85.686337 37.494141 84.662109 C 37.53641 84.570116 37.589444 84.460919 37.632812 84.367188 C 38.116013 83.323354 38.683122 82.154044 39.304688 80.914062 C 39.450872 80.622324 39.588246 80.342341 39.742188 80.041016 C 39.93465 79.664489 40.139036 79.273636 40.34375 78.882812 C 40.60617 78.381672 40.881437 77.8664 41.164062 77.34375 C 41.397586 76.911975 41.631393 76.478724 41.878906 76.033203 C 47.732484 65.4992 57.475262 51.368308 71.794922 40.904297 C 72.016922 40.742297 72.065344 40.428078 71.902344 40.205078 C 71.739344 39.982078 71.427078 39.933656 71.205078 40.097656 C 57.163014 50.359003 47.499063 64.092783 41.541016 74.613281 L 37.138672 71.349609 L 40.535156 64.728516 C 40.650156 64.501516 40.579188 64.223031 40.367188 64.082031 L 34.367188 60.082031 C 34.247188 60.001031 34.102891 59.980625 33.962891 60.015625 C 33.824891 60.052625 33.707531 60.148344 33.644531 60.277344 L 30.320312 66.945312 L 28.308594 65.4375 C 30.973503 57.928844 34.501251 51.066596 38.876953 44.927734 L 40.365234 46.314453 C 39.192323 49.288036 39.573985 52.302501 41.449219 54.177734 C 42.633219 55.362734 44.244375 55.935547 45.984375 55.935547 C 48.404375 55.934547 51.074312 54.825078 53.195312 52.705078 C 56.840312 49.061078 57.500969 43.791984 54.667969 40.958984 C 52.670465 38.96148 49.371723 38.675758 46.244141 40.125 L 44.46875 37.990234 C 49.94775 32.007234 54.710078 28.931422 56.080078 28.107422 z M 37.855469 33.169922 L 43.041016 39.402344 L 47.365234 44.605469 C 47.450288 44.706224 47.525518 44.811317 47.587891 44.921875 C 47.587891 44.921875 47.587891 44.923828 47.587891 44.923828 C 47.650116 45.034356 47.700525 45.148372 47.740234 45.265625 C 47.740234 45.265625 47.740234 45.267578 47.740234 45.267578 C 47.779812 45.384812 47.808958 45.504109 47.826172 45.625 C 47.826172 45.625 47.826172 45.626953 47.826172 45.626953 C 47.843264 45.747836 47.850832 45.87071 47.845703 45.992188 C 47.845703 45.992188 47.845703 45.994141 47.845703 45.994141 C 47.840457 46.115617 47.822255 46.236459 47.794922 46.355469 C 47.794922 46.355469 47.794922 46.357422 47.794922 46.357422 C 47.76747 46.476442 47.729102 46.593541 47.679688 46.707031 C 47.679688 46.707031 47.679688 46.708984 47.679688 46.708984 C 47.630149 46.822497 47.569434 46.932197 47.498047 47.037109 C 47.498047 47.037109 47.498047 47.039062 47.498047 47.039062 C 47.426527 47.144006 47.343263 47.242675 47.25 47.335938 C 46.475 48.110938 45.2425 48.131906 44.4375 47.378906 L 33.369141 37.058594 C 33.475401 36.998494 33.573107 36.925871 33.677734 36.863281 C 33.967338 36.689746 34.254697 36.514347 34.53125 36.322266 C 34.68192 36.217735 34.824081 36.102103 34.970703 35.992188 C 35.214434 35.809378 35.457494 35.626649 35.689453 35.429688 C 35.831375 35.309115 35.966121 35.180538 36.103516 35.054688 C 36.329994 34.847511 36.554146 34.638497 36.767578 34.417969 C 36.889216 34.291981 37.003744 34.15968 37.121094 34.029297 C 37.341547 33.785097 37.557471 33.537613 37.761719 33.279297 C 37.791544 33.241444 37.825985 33.208087 37.855469 33.169922 z M 50.59375 40.216797 C 51.907625 40.308797 53.086984 40.793516 53.958984 41.666016 C 56.400984 44.108016 55.740328 48.744047 52.486328 51.998047 C 49.232328 55.252047 44.59625 55.911703 42.15625 53.470703 C 40.644648 51.958166 40.301499 49.526322 41.15625 47.052734 L 43.072266 48.839844 C 43.469194 49.212314 43.919587 49.48762 44.396484 49.669922 C 44.420148 49.678963 44.444961 49.682832 44.46875 49.691406 C 44.684328 49.769146 44.903823 49.83168 45.126953 49.871094 C 45.15932 49.876818 45.192144 49.87594 45.224609 49.880859 C 45.422804 49.910853 45.622416 49.935547 45.822266 49.935547 C 45.839299 49.935547 45.856016 49.929905 45.873047 49.929688 C 45.939191 49.928864 46.004274 49.916213 46.070312 49.912109 C 46.256041 49.90051 46.442051 49.889095 46.625 49.851562 C 46.716106 49.832912 46.802673 49.7946 46.892578 49.769531 C 47.046453 49.726536 47.200652 49.690658 47.349609 49.628906 C 47.480769 49.574642 47.60241 49.496537 47.728516 49.427734 C 47.833682 49.370322 47.944039 49.325292 48.044922 49.257812 C 48.101895 49.21969 48.151592 49.166341 48.207031 49.125 C 48.363556 49.008309 48.521685 48.894149 48.664062 48.751953 C 48.850062 48.565828 49.013783 48.363816 49.15625 48.154297 C 49.234671 48.038968 49.290286 47.913932 49.355469 47.792969 C 49.408334 47.694722 49.473474 47.601352 49.517578 47.5 C 49.517578 47.5 49.519531 47.498047 49.519531 47.498047 C 50.112078 46.136703 49.913938 44.519406 48.898438 43.316406 L 46.904297 40.919922 C 48.159275 40.380327 49.428641 40.135214 50.59375 40.216797 z M 34.287109 61.230469 L 39.443359 64.669922 L 36.054688 71.271484 C 35.942688 71.489484 36.005172 71.756344 36.201172 71.902344 L 41.035156 75.484375 C 40.96185 75.616104 40.898267 75.738556 40.826172 75.869141 C 40.711715 76.076375 40.607523 76.272249 40.496094 76.476562 C 40.079445 77.240683 39.68504 77.982105 39.310547 78.701172 C 39.180117 78.951611 39.049214 79.198787 38.923828 79.443359 C 38.719245 79.842351 38.544716 80.199609 38.353516 80.582031 C 37.862481 81.564118 37.414039 82.484548 37.009766 83.345703 C 36.903474 83.572041 36.793739 83.802301 36.693359 84.019531 C 36.246408 84.986797 35.860575 85.850358 35.529297 86.619141 C 35.188594 87.409763 34.929694 88.040139 34.707031 88.59375 C 30.6723 87.004463 27.107124 84.687053 24.072266 81.662109 C 25.007932 76.329798 26.306972 71.246209 27.957031 66.423828 L 30.201172 68.107422 C 30.318172 68.196422 30.469234 68.226359 30.615234 68.193359 C 30.759234 68.158359 30.881266 68.062687 30.947266 67.929688 L 34.287109 61.230469 z M 67.355469 64.183594 L 84.5 84.5 L 64.994141 66.210938 C 65.761141 65.542938 66.551469 64.865594 67.355469 64.183594 z"></path>
</svg>