<svg xmlns="http://www.w3.org/2000/svg" x="0px" y="0px" width="100" height="100" viewBox="0 0 50 50">
<path d="M 19.802734 0.99609375 C 19.512109 1.0570313 19.249609 1.2996094 19.099609 1.5996094 C 18.899609 1.9996094 19.000781 2.3992187 19.300781 2.6992188 C 21.600781 4.9992187 22.099609 8.4992188 22.099609 10.699219 C 16.399609 5.8992188 6.3996094 5.1996094 0.59960938 8.0996094 C 0.19960938 8.2996094 -7.4014868e-17 8.6996094 0 9.0996094 C 0 9.4996094 0.29921875 9.8 0.69921875 10 C 5.1992188 11.3 7.9992187 14.399609 9.1992188 16.099609 C 6.8992188 16.399609 5.2 17.299609 3.5 18.099609 C 3.1 18.299609 2.9 18.699609 3 19.099609 C 3 19.499609 3.3007812 19.9 3.8007812 20 C 5.7007813 20.5 7.6 21.400781 9 22.300781 C 3.5 23.200781 0.50078125 26.200391 0.30078125 26.400391 C 0.00078125 26.700391 -0.1 27.000391 0 27.400391 C 0.1 27.700391 0.39921875 27.999609 0.69921875 28.099609 C 0.69921875 28.099609 3.1 28.700391 5 29.900391 C 2.5 31.200391 0.29921875 33.300391 0.19921875 33.400391 C -0.00078125 33.600391 -0.099609375 34.000391 -0.099609375 34.400391 C 0.000390625 34.700391 0.19960938 34.999609 0.59960938 35.099609 L 10.599609 38.099609 L 10.900391 38.099609 L 10.917969 38.099609 C 11.068357 38.250667 11.227195 38.391753 11.400391 38.5 L 14.822266 40.589844 L 15.199219 43 C 15.299219 43.8 15.8 44.5 16.5 45 L 22.800781 49.5 C 23.300781 49.8 23.800391 50 24.400391 50 L 26 50 C 26.2 50 26.300781 49.999609 26.300781 50.099609 C 26.700781 49.999609 27.100391 49.799609 27.400391 49.599609 L 33.699219 45.099609 C 34.399219 44.599609 34.8 43.9 35 43 L 35.341797 40.992188 L 39.300781 38.599609 C 39.553769 38.430951 39.773741 38.225208 39.972656 38 L 40 38 L 40.300781 38 L 47.300781 36 C 47.600781 35.9 47.9 35.600781 48 35.300781 C 48.1 35.000781 47.999219 34.600781 47.699219 34.300781 L 44.400391 31 L 49.699219 25.699219 C 49.899219 25.499219 50 25.100781 50 24.800781 C 49.9 24.500781 49.700391 24.199609 49.400391 24.099609 L 45.699219 22.599609 L 49.800781 17.699219 C 50.100781 17.399219 50.100391 16.9 49.900391 16.5 C 49.700391 16.1 49.200781 15.999609 48.800781 16.099609 L 39.5 18.900391 C 38.7 17.700391 36.999609 15.599219 34.099609 15.199219 C 34.199609 12.399219 33.399609 9.7007812 31.599609 7.3007812 C 28.999609 3.9007812 24.799609 1.6 20.099609 1 C 19.999609 0.975 19.899609 0.97578125 19.802734 0.99609375 z M 26.199219 26 C 26.299219 27.5 26.2 30 25 32.5 C 24.8 32.8 24.899219 33.299609 25.199219 33.599609 C 25.499219 33.899609 25.900781 34.000781 26.300781 33.800781 C 29.100781 32.500781 32.100781 30.299609 33.800781 29.099609 C 34.200781 31.599609 33.900391 32.5 33.900391 32.5 C 33.600391 32.9 33.699609 33.399219 34.099609 33.699219 C 34.499609 33.999219 35.000391 33.999219 35.400391 33.699219 L 38.699219 31 C 38.799219 31.1 38.800781 31.299609 38.800781 31.599609 L 38.800781 35.800781 C 38.800781 36.200781 38.600781 36.600781 38.300781 36.800781 L 35.798828 38.3125 L 35.800781 38.300781 C 35.900781 37.700781 35.5 37.199609 35 37.099609 C 34.4 36.999609 33.900781 37.400391 33.800781 37.900391 L 33 42.599609 C 33 42.899609 32.8 43.200391 32.5 43.400391 L 26.199219 47.900391 C 26.099219 48.000391 25.900781 48 25.800781 48 L 25.699219 48 L 24.300781 48 C 24.200781 48 24.000391 48.000391 23.900391 47.900391 L 17.599609 43.400391 C 17.399609 43.200391 17.199609 42.899609 17.099609 42.599609 L 16.300781 37.599609 C 16.300781 37.099609 15.799219 36.700781 15.199219 36.800781 C 14.699219 36.800781 14.300391 37.400391 14.400391 37.900391 L 14.410156 37.96875 L 12.5 36.800781 C 12.2 36.600781 12 36.200781 12 35.800781 L 12 31.599609 L 12 31.199219 C 12.8 33.099219 13.300781 33.699219 14.300781 34.699219 C 14.600781 34.999219 15.000391 35.100391 15.400391 34.900391 C 15.800391 34.800391 16 34.4 16 34 C 16 31.8 16.8 29.799219 17.5 28.199219 C 17.4 29.599219 17.400781 31.100781 17.800781 32.300781 C 17.900781 32.700781 18.299219 33 18.699219 33 C 19.099219 33.1 19.499219 32.9 19.699219 32.5 C 21.099219 29.9 24.399219 27.3 26.199219 26 z M 32.083984 33.996094 C 31.955859 33.974219 31.824219 33.975 31.699219 34 L 27.699219 35 C 27.199219 35.1 26.9 35.699219 27 36.199219 C 27.1 36.699219 27.6 37 28 37 C 28.030733 37 28.056154 36.99509 28.083984 36.992188 A 1.5 1.5 0 0 0 29.5 38 A 1.5 1.5 0 0 0 30.970703 36.207031 L 32.199219 35.900391 C 32.699219 35.800391 33.000391 35.199219 32.900391 34.699219 C 32.825391 34.324219 32.468359 34.061719 32.083984 33.996094 z M 18.109375 34.052734 C 17.658203 34.002148 17.187109 34.363281 17.099609 34.800781 C 16.899609 35.300781 17.300781 35.9 17.800781 36 L 19.013672 36.302734 A 1.5 1.5 0 0 0 20.5 38 A 1.5 1.5 0 0 0 21.912109 37 L 22 37 C 22.4 37 22.9 36.700781 23 36.300781 C 23.2 35.800781 22.800781 35.199609 22.300781 35.099609 L 18.300781 34.099609 C 18.238281 34.074609 18.173828 34.059961 18.109375 34.052734 z M 24 40 C 23.4 40 23 40.4 23 41 C 23 41.6 23.4 42 24 42 L 26 42 C 26.6 42 27 41.6 27 41 C 27 40.4 26.6 40 26 40 L 24 40 z M 22 43 C 22.5 44.2 23.7 45 25 45 C 26.3 45 27.5 44.2 28 43 L 22 43 z"></path>
</svg>