<svg xmlns="http://www.w3.org/2000/svg" x="0px" y="0px" width="100" height="100" viewBox="0 0 50 50">
<path d="M 20.023438 1 A 1.0001 1.0001 0 0 0 19.292969 2.7070312 C 21.794384 5.2084461 22.015673 8.5241453 21.990234 10.673828 C 19.3732 8.4897967 15.995703 7.1625236 12.525391 6.6367188 C 8.2216996 5.9846443 3.8111245 6.4762736 0.55273438 8.1054688 A 1.0001 1.0001 0 0 0 0.72460938 9.9609375 C 6.0320144 11.477339 8.3523484 14.823024 9.2519531 16.283203 C 7.0062672 16.606912 5.1347096 17.314481 3.5527344 18.105469 A 1.0001 1.0001 0 0 0 3.7578125 19.970703 C 5.780497 20.476374 7.7103918 21.489122 9.1953125 22.380859 C 3.6269694 23.277727 0.29296875 26.292969 0.29296875 26.292969 A 1.0001 1.0001 0 0 0 0.7578125 27.970703 C 0.7578125 27.970703 1.6929391 28.203348 2.8789062 28.677734 C 3.5839642 28.959758 4.2165544 29.455888 4.9082031 29.884766 C 2.3300842 31.260108 0.29296875 33.292969 0.29296875 33.292969 A 1.0001 1.0001 0 0 0 0.71289062 34.957031 L 10.712891 37.957031 A 1.0001 1.0001 0 0 0 10.806641 37.984375 A 1.0001 1.0001 0 0 0 10.808594 37.984375 C 11.009589 38.207691 11.240003 38.406895 11.503906 38.566406 L 14.824219 40.574219 L 15.195312 42.845703 A 1.0001 1.0001 0 0 0 15.203125 42.888672 C 15.374836 43.713168 15.848866 44.443662 16.53125 44.935547 L 22.847656 49.482422 C 23.315175 49.819277 23.874596 50 24.449219 50 L 25.375 50 L 25.888672 50 L 26.037109 50 A 1.0001 1.0001 0 0 0 26.666016 49.777344 C 26.945354 49.698354 27.230784 49.667498 27.488281 49.482422 A 1.0001 1.0001 0 0 0 27.490234 49.482422 L 33.804688 44.935547 C 34.487015 44.4441 34.962877 43.714021 35.134766 42.888672 A 1.0001 1.0001 0 0 0 35.138672 42.861328 L 35.474609 40.998047 L 39.494141 38.566406 C 39.758827 38.406674 39.990039 38.208002 40.191406 37.984375 A 1.0001 1.0001 0 0 0 40.275391 37.960938 L 47.275391 35.960938 A 1.0001 1.0001 0 0 0 47.707031 34.292969 L 44.414062 31 L 49.707031 25.707031 A 1.0001 1.0001 0 0 0 49.371094 24.072266 L 45.648438 22.583984 L 49.767578 17.640625 A 1.0001 1.0001 0 0 0 48.712891 16.042969 L 39.367188 18.845703 C 38.835997 17.935487 37.257907 15.763486 34.009766 15.236328 C 34.23003 11.766435 32.946403 8.5308562 30.599609 6.0605469 C 28.047218 3.373819 24.338721 1.5345277 20.125 1.0078125 A 1.0001 1.0001 0 0 0 20.023438 1 z M 22.464844 3.75 C 25.102315 4.5234963 27.4964 5.6984104 29.150391 7.4394531 C 31.347999 9.7527253 32.464511 12.676159 32.009766 15.859375 A 1.0001 1.0001 0 0 0 33 17 C 36.333333 17 38.105469 20.447266 38.105469 20.447266 A 1.0001 1.0001 0 0 0 39.287109 20.957031 L 46.105469 18.912109 L 43.232422 22.359375 A 1.0001 1.0001 0 0 0 43.628906 23.927734 L 47.220703 25.365234 L 42.292969 30.292969 A 1.0001 1.0001 0 0 0 42.292969 31.707031 L 45.091797 34.505859 L 40.998047 35.675781 L 40.998047 31.703125 C 41.015017 30.926941 40.87857 30.268242 40.548828 29.734375 C 40.219087 29.200508 39.653423 28.823602 39.064453 28.757812 A 1.0001 1.0001 0 0 0 38.318359 28.978516 L 36.082031 30.816406 C 36.055111 29.856694 36.033801 28.859882 35.599609 27.109375 A 1.0001 1.0001 0 0 0 34.009766 26.566406 C 34.009766 26.566406 30.961037 28.786979 27.835938 30.615234 C 28.753701 26.990579 28.082031 23.945313 28.082031 23.945312 A 1.0001 1.0001 0 0 0 26.582031 23.337891 C 26.582031 23.337891 25.00106 24.322806 23.171875 25.818359 C 21.98506 26.788707 20.777537 28.017723 19.699219 29.339844 C 19.717169 28.598187 19.786369 27.831177 19.90625 27.138672 C 20.166201 25.636905 20.542969 24.5 20.542969 24.5 A 1.0001 1.0001 0 0 0 19.582031 23.185547 A 1.0001 1.0001 0 0 0 18.900391 23.464844 C 18.900391 23.464844 15.460188 26.904046 14.435547 31.632812 C 14.157817 31.13448 13.883014 30.568027 13.451172 29.457031 A 1.0001 1.0001 0 0 0 12.890625 28.892578 C 12.218166 28.62284 11.332157 28.759216 10.771484 29.322266 C 10.210812 29.885315 9.9801493 30.710442 10.001953 31.703125 L 10.001953 35.658203 L 3.0429688 33.570312 C 4.1451266 32.647332 5.6563916 31.502557 7.3164062 30.949219 A 1.0001 1.0001 0 0 0 7.7070312 29.292969 C 6.5302547 28.116192 4.9351265 27.347879 3.6210938 26.822266 C 3.3815902 26.726464 3.405507 26.756251 3.1875 26.677734 C 4.6210193 25.603472 7.2196873 24 12 24 A 1.0001 1.0001 0 0 0 12.599609 22.199219 C 12.599609 22.199219 9.9583451 20.241696 6.6972656 18.898438 C 7.9464386 18.394767 9.2692052 18 11 18 A 1.0001 1.0001 0 0 0 11.894531 16.552734 C 11.894531 16.552734 9.311516 11.891629 3.8359375 9.2285156 C 6.3427944 8.5165026 9.2327653 8.1599716 12.224609 8.6132812 C 16.170919 9.2112069 19.945817 10.896699 22.232422 13.640625 A 1.0001 1.0001 0 0 0 23.990234 13.140625 C 23.990234 13.140625 24.767 8.0420943 22.464844 3.75 z M 26.292969 26.015625 C 26.444396 27.473697 26.484496 29.69333 25.140625 32.402344 A 1.0001 1.0001 0 0 0 26.458984 33.751953 C 29.599841 32.288915 32.389211 30.260946 33.867188 29.148438 C 34.013751 30.113443 34.241082 31.283244 34.21875 31.751953 C 34.20091 32.126414 34.15561 32.3593 34.125 32.478516 C 34.09439 32.597731 34.117188 32.529297 34.117188 32.529297 A 1.0001 1.0001 0 0 0 35.634766 33.773438 L 38.900391 31.089844 C 38.946431 31.237307 39.005226 31.329589 38.998047 31.658203 A 1.0001 1.0001 0 0 0 38.998047 31.681641 L 38.998047 35.894531 C 38.998047 36.29029 38.791562 36.653991 38.460938 36.853516 L 35.949219 38.371094 L 35.984375 38.177734 A 1.0002917 1.0002917 0 0 0 34.015625 37.822266 L 33.173828 42.482422 C 33.103238 42.817941 32.911641 43.114487 32.636719 43.3125 L 26.320312 47.859375 C 26.235962 47.919615 26.116439 47.966075 25.951172 47.980469 A 1.0001 1.0001 0 0 0 25.828125 48 L 25.375 48 L 24.449219 48 C 24.295841 48 24.142119 47.95052 24.015625 47.859375 L 17.701172 43.3125 C 17.424312 43.11293 17.232867 42.818776 17.162109 42.482422 C 17.162109 42.482422 17.160156 42.480469 17.160156 42.480469 L 16.351562 37.511719 A 1.0001 1.0001 0 0 0 15.384766 36.660156 A 1.0001 1.0001 0 0 0 14.376953 37.833984 L 14.400391 37.980469 L 12.539062 36.853516 C 12.208227 36.653548 12.001953 36.290861 12.001953 35.894531 L 12.001953 31.681641 A 1.0001 1.0001 0 0 0 12 31.658203 C 11.9935 31.364326 12.046318 31.384623 12.085938 31.238281 C 12.836884 32.923572 13.457508 33.87157 14.292969 34.707031 A 1.0001 1.0001 0 0 0 16 34 C 16 31.877986 16.853707 29.943163 17.777344 28.357422 C 17.651448 29.662283 17.623046 31.033201 18.050781 32.316406 A 1.0001 1.0001 0 0 0 19.894531 32.447266 C 20.769192 30.697944 22.711185 28.778634 24.4375 27.367188 C 25.437677 26.549436 25.699299 26.420498 26.292969 26.015625 z M 32.025391 33.996094 A 1.0001 1.0001 0 0 0 31.757812 34.029297 L 27.757812 35.029297 A 1.0004596 1.0004596 0 0 0 28.085938 36.996094 A 1.5 1.5 0 0 0 29.5 38 A 1.5 1.5 0 0 0 30.984375 36.285156 L 32.242188 35.970703 A 1.0001 1.0001 0 0 0 32.025391 33.996094 z M 17.945312 33.998047 A 1.0001 1.0001 0 0 0 17.757812 35.970703 L 19.017578 36.285156 A 1.5 1.5 0 0 0 20.5 38 A 1.5 1.5 0 0 0 21.914062 36.996094 A 1.0004596 1.0004596 0 0 0 22.242188 35.029297 L 18.242188 34.029297 A 1.0001 1.0001 0 0 0 17.945312 33.998047 z M 24 40 A 1.0001 1.0001 0 1 0 24 42 L 26 42 A 1.0001 1.0001 0 1 0 26 40 L 24 40 z M 22 43 C 22.536 44.179 23.673 45 25 45 C 26.327 45 27.464 44.179 28 43 L 22 43 z"></path>
</svg>